<svg width="136" height="78" viewBox="0 0 136 78" fill="none" xmlns="http://www.w3.org/2000/svg">
<path d="M17.8029 1.2075C18.0341 0.807029 18.1497 0.606795 18.3014 0.541123C18.4281 0.486292 18.5719 0.486292 18.6986 0.541123C18.8503 0.606795 18.9659 0.80703 19.1972 1.2075L33.8243 26.5425C34.0555 26.943 34.1711 27.1432 34.1521 27.3075C34.1363 27.4446 34.0644 27.5691 33.9536 27.6514C33.8208 27.75 33.5896 27.75 33.1272 27.75H3.87283C3.41041 27.75 3.1792 27.75 3.04644 27.6514C2.93561 27.5691 2.86374 27.4446 2.84787 27.3075C2.82886 27.1432 2.94447 26.943 3.17568 26.5425L17.8029 1.2075Z" fill="white"/>
<path d="M2 30C2 27.2386 4.23858 25 7 25H131C133.761 25 136 27.2386 136 30V73C136 75.7614 133.761 78 131 78H7C4.23858 78 2 75.7614 2 73V30Z" fill="white"/>
</svg>
