<svg width="39" height="39" viewBox="0 0 39 39" fill="none" xmlns="http://www.w3.org/2000/svg">
<path fill-rule="evenodd" clip-rule="evenodd" d="M19.5 0C8.72625 0 0 8.72625 0 19.5C0 28.1287 5.58187 35.4169 13.3331 38.0006C14.3081 38.1712 14.6737 37.5862 14.6737 37.0744C14.6737 36.6112 14.6494 35.0756 14.6494 33.4425C9.75 34.3444 8.4825 32.2481 8.0925 31.1512C7.87313 30.5906 6.9225 28.86 6.09375 28.3969C5.41125 28.0312 4.43625 27.1294 6.06938 27.105C7.605 27.0806 8.70187 28.5187 9.0675 29.1037C10.8225 32.0531 13.6256 31.2244 14.7469 30.7125C14.9175 29.445 15.4294 28.5919 15.99 28.1044C11.6512 27.6169 7.1175 25.935 7.1175 18.4762C7.1175 16.3556 7.87313 14.6006 9.11625 13.2356C8.92125 12.7481 8.23875 10.7494 9.31125 8.06812C9.31125 8.06812 10.9444 7.55625 14.6737 10.0669C16.2337 9.62812 17.8912 9.40875 19.5487 9.40875C21.2062 9.40875 22.8638 9.62812 24.4237 10.0669C28.1531 7.53187 29.7862 8.06812 29.7862 8.06812C30.8587 10.7494 30.1763 12.7481 29.9813 13.2356C31.2244 14.6006 31.98 16.3312 31.98 18.4762C31.98 25.9594 27.4219 27.6169 23.0831 28.1044C23.79 28.7137 24.3994 29.8837 24.3994 31.7119C24.3994 34.32 24.375 36.4162 24.375 37.0744C24.375 37.5862 24.7406 38.1956 25.7156 38.0006C29.5867 36.6937 32.9504 34.2057 35.3335 30.887C37.7165 27.5682 38.9988 23.5857 39 19.5C39 8.72625 30.2738 0 19.5 0Z" fill="black"/>
</svg>
