<svg width="112" height="18" viewBox="0 0 112 18" fill="none" xmlns="http://www.w3.org/2000/svg">
<path fill-rule="evenodd" clip-rule="evenodd" d="M9 0C4.0275 0 0 4.0275 0 9C0 12.9825 2.57625 16.3462 6.15375 17.5387C6.60375 17.6175 6.7725 17.3475 6.7725 17.1112C6.7725 16.8975 6.76125 16.1887 6.76125 15.435C4.5 15.8512 3.915 14.8837 3.735 14.3775C3.63375 14.1187 3.195 13.32 2.8125 13.1062C2.4975 12.9375 2.0475 12.5212 2.80125 12.51C3.51 12.4987 4.01625 13.1625 4.185 13.4325C4.995 14.7937 6.28875 14.4112 6.80625 14.175C6.885 13.59 7.12125 13.1962 7.38 12.9712C5.3775 12.7462 3.285 11.97 3.285 8.5275C3.285 7.54875 3.63375 6.73875 4.2075 6.10875C4.1175 5.88375 3.8025 4.96125 4.2975 3.72375C4.2975 3.72375 5.05125 3.4875 6.7725 4.64625C7.4925 4.44375 8.2575 4.3425 9.0225 4.3425C9.7875 4.3425 10.5525 4.44375 11.2725 4.64625C12.9937 3.47625 13.7475 3.72375 13.7475 3.72375C14.2425 4.96125 13.9275 5.88375 13.8375 6.10875C14.4113 6.73875 14.76 7.5375 14.76 8.5275C14.76 11.9812 12.6562 12.7462 10.6537 12.9712C10.98 13.2525 11.2613 13.7925 11.2613 14.6362C11.2613 15.84 11.25 16.8075 11.25 17.1112C11.25 17.3475 11.4187 17.6287 11.8687 17.5387C13.6554 16.9355 15.2079 15.7873 16.3077 14.2555C17.4076 12.7238 17.9995 10.8857 18 9C18 4.0275 13.9725 0 9 0Z" fill="black"/>
<path d="M26.2864 3.3275C26.5064 3.3525 26.7364 3.4075 26.9764 3.4925C27.2214 3.5775 27.4389 3.6925 27.6289 3.8375L22.8964 16.415C22.6664 16.395 22.4314 16.3425 22.1914 16.2575C21.9564 16.1725 21.7414 16.055 21.5464 15.905L26.2864 3.3275ZM30.8067 14.2925C30.8067 14.8875 30.7417 15.38 30.6117 15.77C30.4867 16.165 30.2667 16.4825 29.9517 16.7225C29.6367 16.9625 29.1967 17.1525 28.6317 17.2925C28.5267 17.1925 28.4317 17.055 28.3467 16.88C28.2667 16.71 28.2117 16.5275 28.1817 16.3325C28.4617 16.1925 28.6817 16.05 28.8417 15.905C29.0017 15.76 29.1142 15.5775 29.1792 15.3575C29.2442 15.1375 29.2767 14.8475 29.2767 14.4875V8.5025C29.2767 8.2375 29.2292 8.0425 29.1342 7.9175C29.0392 7.7875 28.8692 7.7225 28.6242 7.7225H28.3167C28.2717 7.5475 28.2492 7.3675 28.2492 7.1825C28.2492 6.9925 28.2717 6.8025 28.3167 6.6125C28.5217 6.5875 28.7267 6.57 28.9317 6.56C29.1367 6.55 29.2992 6.545 29.4192 6.545H29.6217C29.9917 6.545 30.2817 6.665 30.4917 6.905C30.7017 7.14 30.8067 7.465 30.8067 7.88V14.2925ZM28.7817 4.595C28.7817 4.34 28.8267 4.1175 28.9167 3.9275C29.0067 3.8725 29.1292 3.8275 29.2842 3.7925C29.4392 3.7575 29.5917 3.74 29.7417 3.74C29.8817 3.74 30.0342 3.7575 30.1992 3.7925C30.3642 3.8275 30.4867 3.8725 30.5667 3.9275C30.6117 4.0125 30.6442 4.12 30.6642 4.25C30.6892 4.375 30.7017 4.49 30.7017 4.595C30.7017 4.845 30.6567 5.0675 30.5667 5.2625C30.4917 5.3175 30.3692 5.3625 30.1992 5.3975C30.0342 5.4275 29.8817 5.4425 29.7417 5.4425C29.5917 5.4425 29.4367 5.4275 29.2767 5.3975C29.1217 5.3625 29.0017 5.3175 28.9167 5.2625C28.8267 5.0675 28.7817 4.845 28.7817 4.595ZM39.099 10.295C39.099 11.065 38.9765 11.7425 38.7315 12.3275C38.4865 12.9125 38.124 13.37 37.644 13.7C37.164 14.03 36.5665 14.195 35.8515 14.195C35.1415 14.195 34.5465 14.03 34.0665 13.7C33.5865 13.365 33.224 12.905 32.979 12.32C32.739 11.73 32.619 11.055 32.619 10.295C32.619 9.535 32.7415 8.8625 32.9865 8.2775C33.2315 7.6875 33.594 7.2275 34.074 6.8975C34.554 6.5675 35.1465 6.4025 35.8515 6.4025C36.5715 6.4025 37.1715 6.57 37.6515 6.905C38.1315 7.235 38.4915 7.695 38.7315 8.285C38.9765 8.87 39.099 9.54 39.099 10.295ZM34.2165 10.295C34.2165 10.765 34.264 11.2075 34.359 11.6225C34.454 12.0325 34.6215 12.3675 34.8615 12.6275C35.1015 12.8825 35.4365 13.01 35.8665 13.01C36.2915 13.01 36.6215 12.8825 36.8565 12.6275C37.0965 12.3675 37.264 12.0325 37.359 11.6225C37.454 11.2075 37.5015 10.765 37.5015 10.295C37.5015 9.835 37.454 9.3975 37.359 8.9825C37.264 8.5675 37.0965 8.23 36.8565 7.97C36.6215 7.71 36.2915 7.58 35.8665 7.58C35.4365 7.58 35.1015 7.71 34.8615 7.97C34.6215 8.23 34.454 8.5675 34.359 8.9825C34.264 9.3975 34.2165 9.835 34.2165 10.295ZM40.4045 11.9825C40.4045 11.4125 40.5295 10.945 40.7795 10.58C41.0345 10.215 41.377 9.945 41.807 9.77C42.242 9.59 42.7295 9.5 43.2695 9.5C43.4795 9.5 43.7095 9.5075 43.9595 9.5225C44.2145 9.5325 44.467 9.555 44.717 9.59V9.0125C44.717 8.5425 44.6095 8.205 44.3945 8C44.1795 7.795 43.8795 7.6925 43.4945 7.6925C43.1145 7.6925 42.722 7.75 42.317 7.865C41.917 7.975 41.522 8.1075 41.132 8.2625C41.007 8.1375 40.902 7.9675 40.817 7.7525C40.732 7.5325 40.6845 7.3225 40.6745 7.1225C41.0995 6.9425 41.597 6.7825 42.167 6.6425C42.742 6.5025 43.2845 6.4325 43.7945 6.4325C44.5295 6.4325 45.122 6.6375 45.572 7.0475C46.022 7.4575 46.247 8.0925 46.247 8.9525V12.0275C46.247 12.3075 46.272 12.555 46.322 12.77C46.377 12.98 46.492 13.16 46.667 13.31C46.622 13.45 46.5445 13.6 46.4345 13.76C46.3245 13.915 46.207 14.0325 46.082 14.1125C45.772 14.0525 45.5195 13.9375 45.3245 13.7675C45.1345 13.5975 44.9895 13.3975 44.8895 13.1675C44.6195 13.4275 44.2945 13.665 43.9145 13.88C43.5345 14.09 43.0995 14.195 42.6095 14.195C42.1145 14.195 41.702 14.085 41.372 13.865C41.047 13.645 40.8045 13.365 40.6445 13.025C40.4845 12.685 40.4045 12.3375 40.4045 11.9825ZM41.942 11.8775C41.942 12.1825 42.0295 12.4425 42.2045 12.6575C42.3795 12.8675 42.6295 12.9725 42.9545 12.9725C43.2345 12.9725 43.532 12.895 43.847 12.74C44.162 12.585 44.452 12.3575 44.717 12.0575V10.64C44.492 10.615 44.262 10.5975 44.027 10.5875C43.797 10.5775 43.577 10.5725 43.367 10.5725C42.912 10.5725 42.5595 10.6875 42.3095 10.9175C42.0645 11.1475 41.942 11.4675 41.942 11.8775ZM54.2894 10.295C54.2894 11.065 54.1669 11.7425 53.9219 12.3275C53.6769 12.9125 53.3144 13.37 52.8344 13.7C52.3544 14.03 51.7569 14.195 51.0419 14.195C50.3319 14.195 49.7369 14.03 49.2569 13.7C48.7769 13.365 48.4144 12.905 48.1694 12.32C47.9294 11.73 47.8094 11.055 47.8094 10.295C47.8094 9.535 47.9319 8.8625 48.1769 8.2775C48.4219 7.6875 48.7844 7.2275 49.2644 6.8975C49.7444 6.5675 50.3369 6.4025 51.0419 6.4025C51.7619 6.4025 52.3619 6.57 52.8419 6.905C53.3219 7.235 53.6819 7.695 53.9219 8.285C54.1669 8.87 54.2894 9.54 54.2894 10.295ZM49.4069 10.295C49.4069 10.765 49.4544 11.2075 49.5494 11.6225C49.6444 12.0325 49.8119 12.3675 50.0519 12.6275C50.2919 12.8825 50.6269 13.01 51.0569 13.01C51.4819 13.01 51.8119 12.8825 52.0469 12.6275C52.2869 12.3675 52.4544 12.0325 52.5494 11.6225C52.6444 11.2075 52.6919 10.765 52.6919 10.295C52.6919 9.835 52.6444 9.3975 52.5494 8.9825C52.4544 8.5675 52.2869 8.23 52.0469 7.97C51.8119 7.71 51.4819 7.58 51.0569 7.58C50.6269 7.58 50.2919 7.71 50.0519 7.97C49.8119 8.23 49.6444 8.5675 49.5494 8.9825C49.4544 9.3975 49.4069 9.835 49.4069 10.295ZM60.1774 9.305C60.1774 8.78 60.1024 8.4075 59.9524 8.1875C59.8024 7.9675 59.5799 7.8575 59.2849 7.8575C59.0249 7.8625 58.7474 7.95 58.4524 8.12C58.1624 8.285 57.8999 8.5025 57.6649 8.7725V14C57.4549 14.04 57.1974 14.06 56.8924 14.06C56.5874 14.06 56.3274 14.04 56.1124 14V6.635L56.2099 6.53H56.7874C57.0824 6.53 57.2949 6.6125 57.4249 6.7775C57.5599 6.9425 57.6374 7.1725 57.6574 7.4675C57.9574 7.1675 58.2899 6.925 58.6549 6.74C59.0199 6.555 59.3949 6.4625 59.7799 6.4625C60.2049 6.4625 60.5599 6.5625 60.8449 6.7625C61.1299 6.9625 61.3449 7.23 61.4899 7.565C61.8349 7.245 62.2099 6.9825 62.6149 6.7775C63.0249 6.5675 63.4449 6.4625 63.8749 6.4625C64.5299 6.4625 65.0124 6.69 65.3224 7.145C65.6374 7.6 65.7949 8.1525 65.7949 8.8025V12.4175C65.7949 12.6775 65.8124 12.925 65.8474 13.16C65.8824 13.39 65.9474 13.5925 66.0424 13.7675C65.9324 13.8625 65.7899 13.94 65.6149 14C65.4399 14.065 65.2574 14.0975 65.0674 14.0975C64.7674 14.0975 64.5549 14.015 64.4299 13.85C64.3099 13.685 64.2499 13.44 64.2499 13.115V9.29C64.2499 8.765 64.1724 8.395 64.0174 8.18C63.8624 7.965 63.6374 7.8575 63.3424 7.8575C63.0974 7.8575 62.8274 7.94 62.5324 8.105C62.2424 8.27 61.9724 8.495 61.7224 8.78V8.795V14C61.5124 14.04 61.2574 14.06 60.9574 14.06C60.6524 14.06 60.3924 14.04 60.1774 14V9.305ZM67.548 11.9825C67.548 11.4125 67.673 10.945 67.923 10.58C68.178 10.215 68.5205 9.945 68.9505 9.77C69.3855 9.59 69.873 9.5 70.413 9.5C70.623 9.5 70.853 9.5075 71.103 9.5225C71.358 9.5325 71.6105 9.555 71.8605 9.59V9.0125C71.8605 8.5425 71.753 8.205 71.538 8C71.323 7.795 71.023 7.6925 70.638 7.6925C70.258 7.6925 69.8655 7.75 69.4605 7.865C69.0605 7.975 68.6655 8.1075 68.2755 8.2625C68.1505 8.1375 68.0455 7.9675 67.9605 7.7525C67.8755 7.5325 67.828 7.3225 67.818 7.1225C68.243 6.9425 68.7405 6.7825 69.3105 6.6425C69.8855 6.5025 70.428 6.4325 70.938 6.4325C71.673 6.4325 72.2655 6.6375 72.7155 7.0475C73.1655 7.4575 73.3905 8.0925 73.3905 8.9525V12.0275C73.3905 12.3075 73.4155 12.555 73.4655 12.77C73.5205 12.98 73.6355 13.16 73.8105 13.31C73.7655 13.45 73.688 13.6 73.578 13.76C73.468 13.915 73.3505 14.0325 73.2255 14.1125C72.9155 14.0525 72.663 13.9375 72.468 13.7675C72.278 13.5975 72.133 13.3975 72.033 13.1675C71.763 13.4275 71.438 13.665 71.058 13.88C70.678 14.09 70.243 14.195 69.753 14.195C69.258 14.195 68.8455 14.085 68.5155 13.865C68.1905 13.645 67.948 13.365 67.788 13.025C67.628 12.685 67.548 12.3375 67.548 11.9825ZM69.0855 11.8775C69.0855 12.1825 69.173 12.4425 69.348 12.6575C69.523 12.8675 69.773 12.9725 70.098 12.9725C70.378 12.9725 70.6755 12.895 70.9905 12.74C71.3055 12.585 71.5955 12.3575 71.8605 12.0575V10.64C71.6355 10.615 71.4055 10.5975 71.1705 10.5875C70.9405 10.5775 70.7205 10.5725 70.5105 10.5725C70.0555 10.5725 69.703 10.6875 69.453 10.9175C69.208 11.1475 69.0855 11.4675 69.0855 11.8775ZM75.0116 10.385C75.0116 9.495 75.1516 8.76 75.4316 8.18C75.7116 7.6 76.0716 7.17 76.5116 6.89C76.9516 6.605 77.4116 6.4625 77.8916 6.4625C78.2066 6.4625 78.5041 6.51 78.7841 6.605C79.0641 6.695 79.3316 6.8125 79.5866 6.9575V3.065L79.6841 2.9675H80.2691C80.5941 2.9675 80.8141 3.0475 80.9291 3.2075C81.0491 3.3625 81.1091 3.6125 81.1091 3.9575V11.8925C81.1091 12.1825 81.1366 12.455 81.1916 12.71C81.2516 12.965 81.3641 13.165 81.5291 13.31C81.4891 13.45 81.4116 13.6 81.2966 13.76C81.1866 13.915 81.0691 14.0325 80.9441 14.1125C80.6441 14.0525 80.3991 13.94 80.2091 13.775C80.0191 13.61 79.8741 13.41 79.7741 13.175C79.5191 13.465 79.2041 13.7075 78.8291 13.9025C78.4591 14.0975 78.0466 14.195 77.5916 14.195C77.0216 14.195 76.5441 14.035 76.1591 13.715C75.7791 13.39 75.4916 12.9425 75.2966 12.3725C75.1066 11.7975 75.0116 11.135 75.0116 10.385ZM76.5941 10.3925C76.5941 11.2875 76.7291 11.93 76.9991 12.32C77.2691 12.71 77.5866 12.905 77.9516 12.905C78.2166 12.905 78.4966 12.8275 78.7916 12.6725C79.0916 12.5175 79.3566 12.2775 79.5866 11.9525V8.2475C79.3616 8.0975 79.1216 7.97 78.8666 7.865C78.6166 7.76 78.3616 7.7075 78.1016 7.7075C77.6816 7.7075 77.3241 7.9275 77.0291 8.3675C76.7391 8.8025 76.5941 9.4775 76.5941 10.3925ZM83.0557 7.31C83.0907 7.17 83.1632 7.0175 83.2732 6.8525C83.3832 6.6875 83.4982 6.565 83.6182 6.485C83.9782 6.565 84.2707 6.72 84.4957 6.95C84.7257 7.18 84.8932 7.47 84.9982 7.82C85.1732 7.44 85.4182 7.125 85.7332 6.875C86.0482 6.62 86.4557 6.4925 86.9557 6.4925C87.0907 6.4925 87.2207 6.5 87.3457 6.515C87.4707 6.53 87.6057 6.55 87.7507 6.575C87.7507 6.785 87.7207 7.03 87.6607 7.31C87.6057 7.585 87.5107 7.8275 87.3757 8.0375C87.2757 8.0125 87.1732 7.9975 87.0682 7.9925C86.9682 7.9825 86.8682 7.975 86.7682 7.97C86.3632 7.97 86.0307 8.085 85.7707 8.315C85.5157 8.54 85.3107 8.805 85.1557 9.11V14C84.9457 14.04 84.6882 14.06 84.3832 14.06C84.0832 14.06 83.8257 14.04 83.6107 14V8.855C83.6107 8.455 83.5507 8.1275 83.4307 7.8725C83.3107 7.6175 83.1857 7.43 83.0557 7.31ZM88.9306 8.18C88.9306 7.92 88.9131 7.675 88.8781 7.445C88.8431 7.21 88.7781 7.005 88.6831 6.83C88.7981 6.73 88.9431 6.65 89.1181 6.59C89.2931 6.525 89.4731 6.4925 89.6581 6.4925C89.9631 6.4925 90.1756 6.5775 90.2956 6.7475C90.4206 6.9125 90.4831 7.1575 90.4831 7.4825V11.3C90.4831 11.8 90.5456 12.165 90.6706 12.395C90.8006 12.625 91.0481 12.74 91.4131 12.74C91.7081 12.74 92.0281 12.6575 92.3731 12.4925C92.7181 12.3275 93.0256 12.1 93.2956 11.81V6.5975C93.5056 6.5575 93.7606 6.5375 94.0606 6.5375C94.3656 6.5375 94.6256 6.5575 94.8406 6.5975V11.9C94.8406 12.19 94.8706 12.465 94.9306 12.725C94.9906 12.98 95.1006 13.18 95.2606 13.325C95.2206 13.465 95.1456 13.6125 95.0356 13.7675C94.9256 13.9175 94.8081 14.0325 94.6831 14.1125C94.3531 14.0475 94.0856 13.9175 93.8806 13.7225C93.6806 13.5275 93.5306 13.2925 93.4306 13.0175C93.1056 13.3375 92.7256 13.605 92.2906 13.82C91.8556 14.03 91.3981 14.135 90.9181 14.135C90.4531 14.135 90.0731 14.0275 89.7781 13.8125C89.4881 13.5925 89.2731 13.2975 89.1331 12.9275C88.9981 12.5525 88.9306 12.135 88.9306 11.675V8.18ZM96.6913 10.31C96.6913 9.425 96.8313 8.695 97.1113 8.12C97.3963 7.54 97.7563 7.11 98.1913 6.83C98.6313 6.545 99.0863 6.4025 99.5563 6.4025C100.026 6.4025 100.426 6.4775 100.756 6.6275C101.091 6.7725 101.379 6.9525 101.619 7.1675C101.724 6.9975 101.859 6.855 102.024 6.74C102.194 6.62 102.399 6.535 102.639 6.485C102.764 6.56 102.884 6.6775 102.999 6.8375C103.114 6.9975 103.189 7.1475 103.224 7.2875C103.059 7.4325 102.946 7.6325 102.886 7.8875C102.831 8.1425 102.804 8.415 102.804 8.705V13.145C102.804 14.01 102.744 14.68 102.624 15.155C102.504 15.63 102.326 16.015 102.091 16.31C101.846 16.61 101.511 16.85 101.086 17.03C100.666 17.215 100.174 17.3075 99.6088 17.3075C99.1438 17.3075 98.6788 17.2575 98.2138 17.1575C97.7538 17.0625 97.3513 16.9425 97.0063 16.7975C97.0113 16.6075 97.0513 16.4 97.1263 16.175C97.2013 15.95 97.2963 15.77 97.4113 15.635C97.7263 15.785 98.0713 15.9 98.4463 15.98C98.8263 16.065 99.1638 16.1075 99.4588 16.1075C99.9688 16.1075 100.356 16.0125 100.621 15.8225C100.886 15.6325 101.066 15.38 101.161 15.065C101.256 14.75 101.304 14.4025 101.304 14.0225V13.3025C101.054 13.5325 100.759 13.7275 100.419 13.8875C100.079 14.0475 99.7063 14.1275 99.3013 14.1275C98.4313 14.1275 97.7788 13.7775 97.3438 13.0775C96.9088 12.3725 96.6913 11.45 96.6913 10.31ZM98.2738 10.3175C98.2738 11.2125 98.4038 11.8575 98.6638 12.2525C98.9288 12.6425 99.2463 12.8375 99.6163 12.8375C99.9263 12.8375 100.229 12.7575 100.524 12.5975C100.824 12.4325 101.084 12.215 101.304 11.945V8.465C101.304 8.415 101.304 8.365 101.304 8.315C101.074 8.105 100.829 7.94 100.569 7.82C100.309 7.7 100.054 7.64 99.8038 7.64C99.3638 7.64 98.9988 7.86 98.7088 8.3C98.4188 8.735 98.2738 9.4075 98.2738 10.3175ZM104.609 11.9825C104.609 11.4125 104.734 10.945 104.984 10.58C105.239 10.215 105.581 9.945 106.011 9.77C106.446 9.59 106.934 9.5 107.474 9.5C107.684 9.5 107.914 9.5075 108.164 9.5225C108.419 9.5325 108.671 9.555 108.921 9.59V9.0125C108.921 8.5425 108.814 8.205 108.599 8C108.384 7.795 108.084 7.6925 107.699 7.6925C107.319 7.6925 106.926 7.75 106.521 7.865C106.121 7.975 105.726 8.1075 105.336 8.2625C105.211 8.1375 105.106 7.9675 105.021 7.7525C104.936 7.5325 104.889 7.3225 104.879 7.1225C105.304 6.9425 105.801 6.7825 106.371 6.6425C106.946 6.5025 107.489 6.4325 107.999 6.4325C108.734 6.4325 109.326 6.6375 109.776 7.0475C110.226 7.4575 110.451 8.0925 110.451 8.9525V12.0275C110.451 12.3075 110.476 12.555 110.526 12.77C110.581 12.98 110.696 13.16 110.871 13.31C110.826 13.45 110.749 13.6 110.639 13.76C110.529 13.915 110.411 14.0325 110.286 14.1125C109.976 14.0525 109.724 13.9375 109.529 13.7675C109.339 13.5975 109.194 13.3975 109.094 13.1675C108.824 13.4275 108.499 13.665 108.119 13.88C107.739 14.09 107.304 14.195 106.814 14.195C106.319 14.195 105.906 14.085 105.576 13.865C105.251 13.645 105.009 13.365 104.849 13.025C104.689 12.685 104.609 12.3375 104.609 11.9825ZM106.146 11.8775C106.146 12.1825 106.234 12.4425 106.409 12.6575C106.584 12.8675 106.834 12.9725 107.159 12.9725C107.439 12.9725 107.736 12.895 108.051 12.74C108.366 12.585 108.656 12.3575 108.921 12.0575V10.64C108.696 10.615 108.466 10.5975 108.231 10.5875C108.001 10.5775 107.781 10.5725 107.571 10.5725C107.116 10.5725 106.764 10.6875 106.514 10.9175C106.269 11.1475 106.146 11.4675 106.146 11.8775Z" fill="black"/>
</svg>
