<svg width="44" height="44" viewBox="0 0 44 44" fill="none" xmlns="http://www.w3.org/2000/svg">
<rect width="44" height="44" fill="white"/>
<path d="M20.3212 26.27C20.0945 26.2167 19.8278 26.0833 19.5212 25.87C19.2145 25.65 18.9945 25.43 18.8612 25.21L19.5312 24.33C19.7512 24.03 20.0078 23.7467 20.3012 23.48C20.6012 23.2067 20.8912 22.9533 21.1712 22.72C20.8045 22.7 20.4245 22.67 20.0312 22.63C19.6378 22.5833 19.2612 22.5 18.9012 22.38L17.8412 22.05C17.8212 21.8233 17.8678 21.53 17.9812 21.17C18.1012 20.8033 18.2445 20.5267 18.4112 20.34L19.4512 20.69C19.8045 20.81 20.1512 20.97 20.4912 21.17C20.8378 21.37 21.1678 21.5667 21.4812 21.76C21.3878 21.4 21.3012 21.0267 21.2212 20.64C21.1478 20.2533 21.1078 19.8733 21.1012 19.5L21.0912 18.39C21.3045 18.2967 21.6012 18.25 21.9812 18.25C22.3678 18.25 22.6712 18.2967 22.8912 18.39L22.8812 19.5C22.8745 19.8733 22.8312 20.2533 22.7512 20.64C22.6712 21.0267 22.5878 21.4 22.5012 21.76C22.8145 21.56 23.1412 21.3633 23.4812 21.17C23.8278 20.9767 24.1778 20.8233 24.5312 20.71L25.5812 20.36C25.7345 20.52 25.8712 20.78 25.9912 21.14C26.1178 21.5 26.1712 21.8067 26.1512 22.06L25.0812 22.39C24.7212 22.5033 24.3412 22.58 23.9412 22.62C23.5478 22.66 23.1712 22.6933 22.8112 22.72C23.0978 22.9533 23.3878 23.2067 23.6812 23.48C23.9745 23.7533 24.2312 24.04 24.4512 24.34L25.1012 25.22C24.9812 25.42 24.7712 25.6333 24.4712 25.86C24.1712 26.0867 23.8945 26.2267 23.6412 26.28L23.0112 25.38C22.7912 25.0733 22.6012 24.74 22.4412 24.38C22.2812 24.0133 22.1312 23.66 21.9912 23.32C21.8578 23.66 21.7078 24.01 21.5412 24.37C21.3745 24.73 21.1812 25.0633 20.9612 25.37L20.3212 26.27Z" fill="black"/>
</svg>
