<svg width="124" height="19" viewBox="0 0 124 19" fill="none" xmlns="http://www.w3.org/2000/svg">
<path fill-rule="evenodd" clip-rule="evenodd" d="M5.59875 1.7995C6.4785 1.759 6.759 1.75 9 1.75C11.241 1.75 11.5215 1.75975 12.4005 1.7995C13.2795 1.83925 13.8795 1.9795 14.4045 2.18275C14.9542 2.3905 15.453 2.71525 15.8655 3.13525C16.2855 3.547 16.6095 4.045 16.8165 4.5955C17.0205 5.1205 17.16 5.7205 17.2005 6.598C17.241 7.47925 17.25 7.75975 17.25 10C17.25 12.241 17.2402 12.5215 17.2005 13.4012C17.1607 14.2787 17.0205 14.8787 16.8165 15.4037C16.6095 15.9543 16.285 16.4531 15.8655 16.8655C15.453 17.2855 14.9542 17.6095 14.4045 17.8165C13.8795 18.0205 13.2795 18.16 12.402 18.2005C11.5215 18.241 11.241 18.25 9 18.25C6.759 18.25 6.4785 18.2402 5.59875 18.2005C4.72125 18.1607 4.12125 18.0205 3.59625 17.8165C3.04569 17.6095 2.54686 17.2849 2.1345 16.8655C1.71478 16.4535 1.38999 15.9549 1.18275 15.4045C0.9795 14.8795 0.84 14.2795 0.7995 13.402C0.759 12.5207 0.75 12.2402 0.75 10C0.75 7.759 0.75975 7.4785 0.7995 6.5995C0.83925 5.7205 0.9795 5.1205 1.18275 4.5955C1.39029 4.04506 1.71534 3.54648 2.13525 3.1345C2.54703 2.71488 3.04535 2.39008 3.5955 2.18275C4.1205 1.9795 4.7205 1.84 5.598 1.7995H5.59875ZM12.3337 3.2845C11.4637 3.24475 11.2027 3.2365 9 3.2365C6.79725 3.2365 6.53625 3.24475 5.66625 3.2845C4.8615 3.32125 4.425 3.4555 4.134 3.56875C3.74925 3.71875 3.474 3.8965 3.18525 4.18525C2.91153 4.45154 2.70088 4.77571 2.56875 5.134C2.4555 5.425 2.32125 5.8615 2.2845 6.66625C2.24475 7.53625 2.2365 7.79725 2.2365 10C2.2365 12.2027 2.24475 12.4637 2.2845 13.3337C2.32125 14.1385 2.4555 14.575 2.56875 14.866C2.70075 15.2237 2.9115 15.5485 3.18525 15.8147C3.4515 16.0885 3.77625 16.2992 4.134 16.4312C4.425 16.5445 4.8615 16.6787 5.66625 16.7155C6.53625 16.7552 6.7965 16.7635 9 16.7635C11.2035 16.7635 11.4637 16.7552 12.3337 16.7155C13.1385 16.6787 13.575 16.5445 13.866 16.4312C14.2507 16.2812 14.526 16.1035 14.8147 15.8147C15.0885 15.5485 15.2992 15.2237 15.4312 14.866C15.5445 14.575 15.6787 14.1385 15.7155 13.3337C15.7552 12.4637 15.7635 12.2027 15.7635 10C15.7635 7.79725 15.7552 7.53625 15.7155 6.66625C15.6787 5.8615 15.5445 5.425 15.4312 5.134C15.2812 4.74925 15.1035 4.474 14.8147 4.18525C14.5484 3.91155 14.2243 3.70091 13.866 3.56875C13.575 3.4555 13.1385 3.32125 12.3337 3.2845V3.2845ZM7.94625 12.5432C8.53474 12.7882 9.19003 12.8213 9.80019 12.6368C10.4104 12.4523 10.9375 12.0617 11.2917 11.5317C11.6459 11.0017 11.805 10.3652 11.742 9.73083C11.679 9.0965 11.3978 8.50373 10.9462 8.05375C10.6584 7.76611 10.3104 7.54586 9.92725 7.40886C9.54409 7.27186 9.13532 7.22152 8.73037 7.26146C8.32542 7.3014 7.93436 7.43063 7.58535 7.63985C7.23634 7.84906 6.93806 8.13306 6.71198 8.47139C6.48589 8.80972 6.33764 9.19397 6.27789 9.59647C6.21813 9.99897 6.24836 10.4097 6.3664 10.7991C6.48444 11.1886 6.68736 11.547 6.96054 11.8485C7.23372 12.1501 7.57037 12.3874 7.94625 12.5432ZM6.0015 7.0015C6.39527 6.60773 6.86274 6.29538 7.37722 6.08227C7.89171 5.86916 8.44313 5.75948 9 5.75948C9.55687 5.75948 10.1083 5.86916 10.6228 6.08227C11.1373 6.29538 11.6047 6.60773 11.9985 7.0015C12.3923 7.39527 12.7046 7.86274 12.9177 8.37722C13.1308 8.89171 13.2405 9.44313 13.2405 10C13.2405 10.5569 13.1308 11.1083 12.9177 11.6228C12.7046 12.1373 12.3923 12.6047 11.9985 12.9985C11.2032 13.7937 10.1247 14.2405 9 14.2405C7.87534 14.2405 6.79675 13.7937 6.0015 12.9985C5.20625 12.2032 4.75948 11.1247 4.75948 10C4.75948 8.87534 5.20625 7.79675 6.0015 7.0015V7.0015ZM14.181 6.391C14.2786 6.29895 14.3567 6.18826 14.4107 6.06548C14.4648 5.9427 14.4936 5.81033 14.4956 5.6762C14.4975 5.54207 14.4725 5.40891 14.4221 5.28461C14.3717 5.1603 14.2968 5.04738 14.202 4.95253C14.1071 4.85767 13.9942 4.78282 13.8699 4.73239C13.7456 4.68196 13.6124 4.65698 13.4783 4.65894C13.3442 4.66089 13.2118 4.68974 13.089 4.74377C12.9662 4.7978 12.8555 4.87592 12.7635 4.9735C12.5845 5.16327 12.4865 5.41534 12.4903 5.6762C12.4941 5.93705 12.5994 6.18616 12.7839 6.37063C12.9683 6.5551 13.2174 6.66042 13.4783 6.66422C13.7392 6.66803 13.9912 6.57002 14.181 6.391V6.391Z" fill="black"/>
<path d="M26.3098 3.3275C26.5298 3.3525 26.7598 3.4075 26.9998 3.4925C27.2448 3.5775 27.4623 3.6925 27.6523 3.8375L22.9198 16.415C22.6898 16.395 22.4548 16.3425 22.2148 16.2575C21.9798 16.1725 21.7648 16.055 21.5698 15.905L26.3098 3.3275ZM30.8301 14.2925C30.8301 14.8875 30.7651 15.38 30.6351 15.77C30.5101 16.165 30.2901 16.4825 29.9751 16.7225C29.6601 16.9625 29.2201 17.1525 28.6551 17.2925C28.5501 17.1925 28.4551 17.055 28.3701 16.88C28.2901 16.71 28.2351 16.5275 28.2051 16.3325C28.4851 16.1925 28.7051 16.05 28.8651 15.905C29.0251 15.76 29.1376 15.5775 29.2026 15.3575C29.2676 15.1375 29.3001 14.8475 29.3001 14.4875V8.5025C29.3001 8.2375 29.2526 8.0425 29.1576 7.9175C29.0626 7.7875 28.8926 7.7225 28.6476 7.7225H28.3401C28.2951 7.5475 28.2726 7.3675 28.2726 7.1825C28.2726 6.9925 28.2951 6.8025 28.3401 6.6125C28.5451 6.5875 28.7501 6.57 28.9551 6.56C29.1601 6.55 29.3226 6.545 29.4426 6.545H29.6451C30.0151 6.545 30.3051 6.665 30.5151 6.905C30.7251 7.14 30.8301 7.465 30.8301 7.88V14.2925ZM28.8051 4.595C28.8051 4.34 28.8501 4.1175 28.9401 3.9275C29.0301 3.8725 29.1526 3.8275 29.3076 3.7925C29.4626 3.7575 29.6151 3.74 29.7651 3.74C29.9051 3.74 30.0576 3.7575 30.2226 3.7925C30.3876 3.8275 30.5101 3.8725 30.5901 3.9275C30.6351 4.0125 30.6676 4.12 30.6876 4.25C30.7126 4.375 30.7251 4.49 30.7251 4.595C30.7251 4.845 30.6801 5.0675 30.5901 5.2625C30.5151 5.3175 30.3926 5.3625 30.2226 5.3975C30.0576 5.4275 29.9051 5.4425 29.7651 5.4425C29.6151 5.4425 29.4601 5.4275 29.3001 5.3975C29.1451 5.3625 29.0251 5.3175 28.9401 5.2625C28.8501 5.0675 28.8051 4.845 28.8051 4.595ZM39.1224 10.295C39.1224 11.065 38.9999 11.7425 38.7549 12.3275C38.5099 12.9125 38.1474 13.37 37.6674 13.7C37.1874 14.03 36.5899 14.195 35.8749 14.195C35.1649 14.195 34.5699 14.03 34.0899 13.7C33.6099 13.365 33.2474 12.905 33.0024 12.32C32.7624 11.73 32.6424 11.055 32.6424 10.295C32.6424 9.535 32.7649 8.8625 33.0099 8.2775C33.2549 7.6875 33.6174 7.2275 34.0974 6.8975C34.5774 6.5675 35.1699 6.4025 35.8749 6.4025C36.5949 6.4025 37.1949 6.57 37.6749 6.905C38.1549 7.235 38.5149 7.695 38.7549 8.285C38.9999 8.87 39.1224 9.54 39.1224 10.295ZM34.2399 10.295C34.2399 10.765 34.2874 11.2075 34.3824 11.6225C34.4774 12.0325 34.6449 12.3675 34.8849 12.6275C35.1249 12.8825 35.4599 13.01 35.8899 13.01C36.3149 13.01 36.6449 12.8825 36.8799 12.6275C37.1199 12.3675 37.2874 12.0325 37.3824 11.6225C37.4774 11.2075 37.5249 10.765 37.5249 10.295C37.5249 9.835 37.4774 9.3975 37.3824 8.9825C37.2874 8.5675 37.1199 8.23 36.8799 7.97C36.6449 7.71 36.3149 7.58 35.8899 7.58C35.4599 7.58 35.1249 7.71 34.8849 7.97C34.6449 8.23 34.4774 8.5675 34.3824 8.9825C34.2874 9.3975 34.2399 9.835 34.2399 10.295ZM40.4279 11.9825C40.4279 11.4125 40.5529 10.945 40.8029 10.58C41.0579 10.215 41.4004 9.945 41.8304 9.77C42.2654 9.59 42.7529 9.5 43.2929 9.5C43.5029 9.5 43.7329 9.5075 43.9829 9.5225C44.2379 9.5325 44.4904 9.555 44.7404 9.59V9.0125C44.7404 8.5425 44.6329 8.205 44.4179 8C44.2029 7.795 43.9029 7.6925 43.5179 7.6925C43.1379 7.6925 42.7454 7.75 42.3404 7.865C41.9404 7.975 41.5454 8.1075 41.1554 8.2625C41.0304 8.1375 40.9254 7.9675 40.8404 7.7525C40.7554 7.5325 40.7079 7.3225 40.6979 7.1225C41.1229 6.9425 41.6204 6.7825 42.1904 6.6425C42.7654 6.5025 43.3079 6.4325 43.8179 6.4325C44.5529 6.4325 45.1454 6.6375 45.5954 7.0475C46.0454 7.4575 46.2704 8.0925 46.2704 8.9525V12.0275C46.2704 12.3075 46.2954 12.555 46.3454 12.77C46.4004 12.98 46.5154 13.16 46.6904 13.31C46.6454 13.45 46.5679 13.6 46.4579 13.76C46.3479 13.915 46.2304 14.0325 46.1054 14.1125C45.7954 14.0525 45.5429 13.9375 45.3479 13.7675C45.1579 13.5975 45.0129 13.3975 44.9129 13.1675C44.6429 13.4275 44.3179 13.665 43.9379 13.88C43.5579 14.09 43.1229 14.195 42.6329 14.195C42.1379 14.195 41.7254 14.085 41.3954 13.865C41.0704 13.645 40.8279 13.365 40.6679 13.025C40.5079 12.685 40.4279 12.3375 40.4279 11.9825ZM41.9654 11.8775C41.9654 12.1825 42.0529 12.4425 42.2279 12.6575C42.4029 12.8675 42.6529 12.9725 42.9779 12.9725C43.2579 12.9725 43.5554 12.895 43.8704 12.74C44.1854 12.585 44.4754 12.3575 44.7404 12.0575V10.64C44.5154 10.615 44.2854 10.5975 44.0504 10.5875C43.8204 10.5775 43.6004 10.5725 43.3904 10.5725C42.9354 10.5725 42.5829 10.6875 42.3329 10.9175C42.0879 11.1475 41.9654 11.4675 41.9654 11.8775ZM54.3129 10.295C54.3129 11.065 54.1904 11.7425 53.9454 12.3275C53.7004 12.9125 53.3379 13.37 52.8579 13.7C52.3779 14.03 51.7804 14.195 51.0654 14.195C50.3554 14.195 49.7604 14.03 49.2804 13.7C48.8004 13.365 48.4379 12.905 48.1929 12.32C47.9529 11.73 47.8329 11.055 47.8329 10.295C47.8329 9.535 47.9554 8.8625 48.2004 8.2775C48.4454 7.6875 48.8079 7.2275 49.2879 6.8975C49.7679 6.5675 50.3604 6.4025 51.0654 6.4025C51.7854 6.4025 52.3854 6.57 52.8654 6.905C53.3454 7.235 53.7054 7.695 53.9454 8.285C54.1904 8.87 54.3129 9.54 54.3129 10.295ZM49.4304 10.295C49.4304 10.765 49.4779 11.2075 49.5729 11.6225C49.6679 12.0325 49.8354 12.3675 50.0754 12.6275C50.3154 12.8825 50.6504 13.01 51.0804 13.01C51.5054 13.01 51.8354 12.8825 52.0704 12.6275C52.3104 12.3675 52.4779 12.0325 52.5729 11.6225C52.6679 11.2075 52.7154 10.765 52.7154 10.295C52.7154 9.835 52.6679 9.3975 52.5729 8.9825C52.4779 8.5675 52.3104 8.23 52.0704 7.97C51.8354 7.71 51.5054 7.58 51.0804 7.58C50.6504 7.58 50.3154 7.71 50.0754 7.97C49.8354 8.23 49.6679 8.5675 49.5729 8.9825C49.4779 9.3975 49.4304 9.835 49.4304 10.295ZM60.2008 9.305C60.2008 8.78 60.1258 8.4075 59.9758 8.1875C59.8258 7.9675 59.6033 7.8575 59.3083 7.8575C59.0483 7.8625 58.7708 7.95 58.4758 8.12C58.1858 8.285 57.9233 8.5025 57.6883 8.7725V14C57.4783 14.04 57.2208 14.06 56.9158 14.06C56.6108 14.06 56.3508 14.04 56.1358 14V6.635L56.2333 6.53H56.8108C57.1058 6.53 57.3183 6.6125 57.4483 6.7775C57.5833 6.9425 57.6608 7.1725 57.6808 7.4675C57.9808 7.1675 58.3133 6.925 58.6783 6.74C59.0433 6.555 59.4183 6.4625 59.8033 6.4625C60.2283 6.4625 60.5833 6.5625 60.8683 6.7625C61.1533 6.9625 61.3683 7.23 61.5133 7.565C61.8583 7.245 62.2333 6.9825 62.6383 6.7775C63.0483 6.5675 63.4683 6.4625 63.8983 6.4625C64.5533 6.4625 65.0358 6.69 65.3458 7.145C65.6608 7.6 65.8183 8.1525 65.8183 8.8025V12.4175C65.8183 12.6775 65.8358 12.925 65.8708 13.16C65.9058 13.39 65.9708 13.5925 66.0658 13.7675C65.9558 13.8625 65.8133 13.94 65.6383 14C65.4633 14.065 65.2808 14.0975 65.0908 14.0975C64.7908 14.0975 64.5783 14.015 64.4533 13.85C64.3333 13.685 64.2733 13.44 64.2733 13.115V9.29C64.2733 8.765 64.1958 8.395 64.0408 8.18C63.8858 7.965 63.6608 7.8575 63.3658 7.8575C63.1208 7.8575 62.8508 7.94 62.5558 8.105C62.2658 8.27 61.9958 8.495 61.7458 8.78V8.795V14C61.5358 14.04 61.2808 14.06 60.9808 14.06C60.6758 14.06 60.4158 14.04 60.2008 14V9.305ZM72.1539 9.305C72.1539 8.78 72.0789 8.4075 71.9289 8.1875C71.7789 7.9675 71.5564 7.8575 71.2614 7.8575C71.0014 7.8625 70.7239 7.95 70.4289 8.12C70.1389 8.285 69.8764 8.5025 69.6414 8.7725V14C69.4314 14.04 69.1739 14.06 68.8689 14.06C68.5639 14.06 68.3039 14.04 68.0889 14V6.635L68.1864 6.53H68.7639C69.0589 6.53 69.2714 6.6125 69.4014 6.7775C69.5364 6.9425 69.6139 7.1725 69.6339 7.4675C69.9339 7.1675 70.2664 6.925 70.6314 6.74C70.9964 6.555 71.3714 6.4625 71.7564 6.4625C72.1814 6.4625 72.5364 6.5625 72.8214 6.7625C73.1064 6.9625 73.3214 7.23 73.4664 7.565C73.8114 7.245 74.1864 6.9825 74.5914 6.7775C75.0014 6.5675 75.4214 6.4625 75.8514 6.4625C76.5064 6.4625 76.9889 6.69 77.2989 7.145C77.6139 7.6 77.7714 8.1525 77.7714 8.8025V12.4175C77.7714 12.6775 77.7889 12.925 77.8239 13.16C77.8589 13.39 77.9239 13.5925 78.0189 13.7675C77.9089 13.8625 77.7664 13.94 77.5914 14C77.4164 14.065 77.2339 14.0975 77.0439 14.0975C76.7439 14.0975 76.5314 14.015 76.4064 13.85C76.2864 13.685 76.2264 13.44 76.2264 13.115V9.29C76.2264 8.765 76.1489 8.395 75.9939 8.18C75.8389 7.965 75.6139 7.8575 75.3189 7.8575C75.0739 7.8575 74.8039 7.94 74.5089 8.105C74.2189 8.27 73.9489 8.495 73.6989 8.78V8.795V14C73.4889 14.04 73.2339 14.06 72.9339 14.06C72.6289 14.06 72.3689 14.04 72.1539 14V9.305ZM79.5246 11.9825C79.5246 11.4125 79.6496 10.945 79.8996 10.58C80.1546 10.215 80.4971 9.945 80.9271 9.77C81.3621 9.59 81.8496 9.5 82.3896 9.5C82.5996 9.5 82.8296 9.5075 83.0796 9.5225C83.3346 9.5325 83.5871 9.555 83.8371 9.59V9.0125C83.8371 8.5425 83.7296 8.205 83.5146 8C83.2996 7.795 82.9996 7.6925 82.6146 7.6925C82.2346 7.6925 81.8421 7.75 81.4371 7.865C81.0371 7.975 80.6421 8.1075 80.2521 8.2625C80.1271 8.1375 80.0221 7.9675 79.9371 7.7525C79.8521 7.5325 79.8046 7.3225 79.7946 7.1225C80.2196 6.9425 80.7171 6.7825 81.2871 6.6425C81.8621 6.5025 82.4046 6.4325 82.9146 6.4325C83.6496 6.4325 84.2421 6.6375 84.6921 7.0475C85.1421 7.4575 85.3671 8.0925 85.3671 8.9525V12.0275C85.3671 12.3075 85.3921 12.555 85.4421 12.77C85.4971 12.98 85.6121 13.16 85.7871 13.31C85.7421 13.45 85.6646 13.6 85.5546 13.76C85.4446 13.915 85.3271 14.0325 85.2021 14.1125C84.8921 14.0525 84.6396 13.9375 84.4446 13.7675C84.2546 13.5975 84.1096 13.3975 84.0096 13.1675C83.7396 13.4275 83.4146 13.665 83.0346 13.88C82.6546 14.09 82.2196 14.195 81.7296 14.195C81.2346 14.195 80.8221 14.085 80.4921 13.865C80.1671 13.645 79.9246 13.365 79.7646 13.025C79.6046 12.685 79.5246 12.3375 79.5246 11.9825ZM81.0621 11.8775C81.0621 12.1825 81.1496 12.4425 81.3246 12.6575C81.4996 12.8675 81.7496 12.9725 82.0746 12.9725C82.3546 12.9725 82.6521 12.895 82.9671 12.74C83.2821 12.585 83.5721 12.3575 83.8371 12.0575V10.64C83.6121 10.615 83.3821 10.5975 83.1471 10.5875C82.9171 10.5775 82.6971 10.5725 82.4871 10.5725C82.0321 10.5725 81.6796 10.6875 81.4296 10.9175C81.1846 11.1475 81.0621 11.4675 81.0621 11.8775ZM86.9881 10.385C86.9881 9.495 87.1281 8.76 87.4081 8.18C87.6881 7.6 88.0481 7.17 88.4881 6.89C88.9281 6.605 89.3881 6.4625 89.8681 6.4625C90.1831 6.4625 90.4806 6.51 90.7606 6.605C91.0406 6.695 91.3081 6.8125 91.5631 6.9575V3.065L91.6606 2.9675H92.2456C92.5706 2.9675 92.7906 3.0475 92.9056 3.2075C93.0256 3.3625 93.0856 3.6125 93.0856 3.9575V11.8925C93.0856 12.1825 93.1131 12.455 93.1681 12.71C93.2281 12.965 93.3406 13.165 93.5056 13.31C93.4656 13.45 93.3881 13.6 93.2731 13.76C93.1631 13.915 93.0456 14.0325 92.9206 14.1125C92.6206 14.0525 92.3756 13.94 92.1856 13.775C91.9956 13.61 91.8506 13.41 91.7506 13.175C91.4956 13.465 91.1806 13.7075 90.8056 13.9025C90.4356 14.0975 90.0231 14.195 89.5681 14.195C88.9981 14.195 88.5206 14.035 88.1356 13.715C87.7556 13.39 87.4681 12.9425 87.2731 12.3725C87.0831 11.7975 86.9881 11.135 86.9881 10.385ZM88.5706 10.3925C88.5706 11.2875 88.7056 11.93 88.9756 12.32C89.2456 12.71 89.5631 12.905 89.9281 12.905C90.1931 12.905 90.4731 12.8275 90.7681 12.6725C91.0681 12.5175 91.3331 12.2775 91.5631 11.9525V8.2475C91.3381 8.0975 91.0981 7.97 90.8431 7.865C90.5931 7.76 90.3381 7.7075 90.0781 7.7075C89.6581 7.7075 89.3006 7.9275 89.0056 8.3675C88.7156 8.8025 88.5706 9.4775 88.5706 10.3925ZM95.0322 7.31C95.0672 7.17 95.1397 7.0175 95.2497 6.8525C95.3597 6.6875 95.4747 6.565 95.5947 6.485C95.9547 6.565 96.2472 6.72 96.4722 6.95C96.7022 7.18 96.8697 7.47 96.9747 7.82C97.1497 7.44 97.3947 7.125 97.7097 6.875C98.0247 6.62 98.4322 6.4925 98.9322 6.4925C99.0672 6.4925 99.1972 6.5 99.3222 6.515C99.4472 6.53 99.5822 6.55 99.7272 6.575C99.7272 6.785 99.6972 7.03 99.6372 7.31C99.5822 7.585 99.4872 7.8275 99.3522 8.0375C99.2522 8.0125 99.1497 7.9975 99.0447 7.9925C98.9447 7.9825 98.8447 7.975 98.7447 7.97C98.3397 7.97 98.0072 8.085 97.7472 8.315C97.4922 8.54 97.2872 8.805 97.1322 9.11V14C96.9222 14.04 96.6647 14.06 96.3597 14.06C96.0597 14.06 95.8022 14.04 95.5872 14V8.855C95.5872 8.455 95.5272 8.1275 95.4072 7.8725C95.2872 7.6175 95.1622 7.43 95.0322 7.31ZM100.907 8.18C100.907 7.92 100.89 7.675 100.855 7.445C100.82 7.21 100.755 7.005 100.66 6.83C100.775 6.73 100.92 6.65 101.095 6.59C101.27 6.525 101.45 6.4925 101.635 6.4925C101.94 6.4925 102.152 6.5775 102.272 6.7475C102.397 6.9125 102.46 7.1575 102.46 7.4825V11.3C102.46 11.8 102.522 12.165 102.647 12.395C102.777 12.625 103.025 12.74 103.39 12.74C103.685 12.74 104.005 12.6575 104.35 12.4925C104.695 12.3275 105.002 12.1 105.272 11.81V6.5975C105.482 6.5575 105.737 6.5375 106.037 6.5375C106.342 6.5375 106.602 6.5575 106.817 6.5975V11.9C106.817 12.19 106.847 12.465 106.907 12.725C106.967 12.98 107.077 13.18 107.237 13.325C107.197 13.465 107.122 13.6125 107.012 13.7675C106.902 13.9175 106.785 14.0325 106.66 14.1125C106.33 14.0475 106.062 13.9175 105.857 13.7225C105.657 13.5275 105.507 13.2925 105.407 13.0175C105.082 13.3375 104.702 13.605 104.267 13.82C103.832 14.03 103.375 14.135 102.895 14.135C102.43 14.135 102.05 14.0275 101.755 13.8125C101.465 13.5925 101.25 13.2975 101.11 12.9275C100.975 12.5525 100.907 12.135 100.907 11.675V8.18ZM108.668 10.31C108.668 9.425 108.808 8.695 109.088 8.12C109.373 7.54 109.733 7.11 110.168 6.83C110.608 6.545 111.063 6.4025 111.533 6.4025C112.003 6.4025 112.403 6.4775 112.733 6.6275C113.068 6.7725 113.355 6.9525 113.595 7.1675C113.7 6.9975 113.835 6.855 114 6.74C114.17 6.62 114.375 6.535 114.615 6.485C114.74 6.56 114.86 6.6775 114.975 6.8375C115.09 6.9975 115.165 7.1475 115.2 7.2875C115.035 7.4325 114.923 7.6325 114.863 7.8875C114.808 8.1425 114.78 8.415 114.78 8.705V13.145C114.78 14.01 114.72 14.68 114.6 15.155C114.48 15.63 114.303 16.015 114.068 16.31C113.823 16.61 113.488 16.85 113.063 17.03C112.643 17.215 112.15 17.3075 111.585 17.3075C111.12 17.3075 110.655 17.2575 110.19 17.1575C109.73 17.0625 109.328 16.9425 108.983 16.7975C108.988 16.6075 109.028 16.4 109.103 16.175C109.178 15.95 109.273 15.77 109.388 15.635C109.703 15.785 110.048 15.9 110.423 15.98C110.803 16.065 111.14 16.1075 111.435 16.1075C111.945 16.1075 112.333 16.0125 112.598 15.8225C112.863 15.6325 113.043 15.38 113.138 15.065C113.233 14.75 113.28 14.4025 113.28 14.0225V13.3025C113.03 13.5325 112.735 13.7275 112.395 13.8875C112.055 14.0475 111.683 14.1275 111.278 14.1275C110.408 14.1275 109.755 13.7775 109.32 13.0775C108.885 12.3725 108.668 11.45 108.668 10.31ZM110.25 10.3175C110.25 11.2125 110.38 11.8575 110.64 12.2525C110.905 12.6425 111.223 12.8375 111.593 12.8375C111.903 12.8375 112.205 12.7575 112.5 12.5975C112.8 12.4325 113.06 12.215 113.28 11.945V8.465C113.28 8.415 113.28 8.365 113.28 8.315C113.05 8.105 112.805 7.94 112.545 7.82C112.285 7.7 112.03 7.64 111.78 7.64C111.34 7.64 110.975 7.86 110.685 8.3C110.395 8.735 110.25 9.4075 110.25 10.3175ZM116.585 11.9825C116.585 11.4125 116.71 10.945 116.96 10.58C117.215 10.215 117.558 9.945 117.988 9.77C118.423 9.59 118.91 9.5 119.45 9.5C119.66 9.5 119.89 9.5075 120.14 9.5225C120.395 9.5325 120.648 9.555 120.898 9.59V9.0125C120.898 8.5425 120.79 8.205 120.575 8C120.36 7.795 120.06 7.6925 119.675 7.6925C119.295 7.6925 118.903 7.75 118.498 7.865C118.098 7.975 117.703 8.1075 117.313 8.2625C117.188 8.1375 117.083 7.9675 116.998 7.7525C116.913 7.5325 116.865 7.3225 116.855 7.1225C117.28 6.9425 117.778 6.7825 118.348 6.6425C118.923 6.5025 119.465 6.4325 119.975 6.4325C120.71 6.4325 121.303 6.6375 121.753 7.0475C122.203 7.4575 122.428 8.0925 122.428 8.9525V12.0275C122.428 12.3075 122.453 12.555 122.503 12.77C122.558 12.98 122.673 13.16 122.848 13.31C122.803 13.45 122.725 13.6 122.615 13.76C122.505 13.915 122.388 14.0325 122.263 14.1125C121.953 14.0525 121.7 13.9375 121.505 13.7675C121.315 13.5975 121.17 13.3975 121.07 13.1675C120.8 13.4275 120.475 13.665 120.095 13.88C119.715 14.09 119.28 14.195 118.79 14.195C118.295 14.195 117.883 14.085 117.553 13.865C117.228 13.645 116.985 13.365 116.825 13.025C116.665 12.685 116.585 12.3375 116.585 11.9825ZM118.123 11.8775C118.123 12.1825 118.21 12.4425 118.385 12.6575C118.56 12.8675 118.81 12.9725 119.135 12.9725C119.415 12.9725 119.713 12.895 120.028 12.74C120.343 12.585 120.633 12.3575 120.898 12.0575V10.64C120.673 10.615 120.443 10.5975 120.208 10.5875C119.978 10.5775 119.758 10.5725 119.548 10.5725C119.093 10.5725 118.74 10.6875 118.49 10.9175C118.245 11.1475 118.123 11.4675 118.123 11.8775Z" fill="black"/>
</svg>
